<svg width="1966" height="1493" viewBox="0 0 1966 1493" fill="none" xmlns="http://www.w3.org/2000/svg">
<path d="M536.245 1276.84C462.123 1261.46 260.038 1158.65 290.806 891.5C315.132 680.272 527.585 717.119 655.45 704.559C677.687 704.42 732.649 696.029 774.604 663.579C827.049 623.016 762.717 272.641 1196.96 195.012C1631.19 117.384 1722.65 328.085 1766 372.144C1809.35 416.204 1778.04 704.141 1752.86 781.769C1727.69 859.397 1634.69 909.051 1501.13 924.437C1367.57 939.823 1436.1 1107.67 1386.45 1169.91C1336.81 1232.15 1213.04 1290.9 1097.66 1349.64C982.283 1408.39 610.366 1292.23 536.245 1276.84Z" fill="url(#paint0_linear)"/>
<path d="M1380.49 963.229C1347.52 978.538 1344.18 1040.27 1346.64 1069.22C1389.32 1122.95 1487.95 1228.34 1540.95 1220.1C1607.19 1209.8 1629.27 1185.51 1667.54 1167.84C1705.81 1150.18 1689.62 1089.82 1689.62 1019.17C1689.62 948.508 1701.4 949.98 1757.34 898.459C1813.27 846.937 1797.08 798.36 1783.83 760.086C1770.72 722.216 1819.59 690.11 1870.53 656.64L1872.16 655.571C1923.68 621.714 1931.04 574.608 1914.84 486.286C1898.65 397.963 1823.58 418.572 1797.08 417.1C1770.58 415.628 1727.9 450.957 1689.62 540.752C1651.35 630.546 1621.91 648.211 1551.25 664.403C1480.59 680.596 1464.4 726.229 1446.73 760.086C1429.07 793.943 1464.4 873.434 1464.4 907.291C1464.4 941.148 1421.71 944.092 1380.49 963.229Z" fill="#F5DD97"/>
<path d="M1577.11 875.114C1607.73 815.055 1710.58 692.09 1758.17 638.115C1756.95 643.267 1744.92 664.464 1706.65 708.037C1658.81 762.502 1599.93 859.658 1577.11 895.723C1558.86 924.575 1492.47 1095.18 1461.56 1176.88C1458.86 1178.85 1453.46 1180.71 1453.46 1172.47C1453.46 1162.16 1538.84 950.188 1577.11 875.114Z" fill="#C6AA50"/>
<path d="M635.011 162.659C592.997 172.755 493.843 270.342 443.426 307.358C425.5 314.649 377.884 329.231 330.828 329.231C272.008 329.231 287.133 351.104 298.897 406.628C310.661 462.151 443.426 467.199 549.302 453.739C655.178 440.278 635.011 374.659 702.234 245.104C769.457 115.548 677.025 152.564 635.011 162.659Z" fill="#F3ECC8"/>
<path d="M505 785.5C496.811 749.97 371.54 498.547 313.961 384.587C313.26 383.965 311.128 382.525 308.212 381.744C304.567 380.767 302.701 382.872 301.963 390.487C301.224 398.102 317.559 424.616 320.791 431.993C324.023 439.37 462.48 717.727 483 767.5C503.52 817.273 543.015 1060.59 550.56 1119.91C556.596 1167.37 554.702 1224.33 553.001 1246.88C559.589 1248.21 572.263 1237.2 570.255 1182.49C567.744 1114.1 515.237 829.913 505 785.5Z" fill="#A07E19"/>
<path d="M373.348 443.528C350.7 411.415 327.462 420.381 318.675 428.878C315.16 432.277 307.526 442.298 305.112 455.194C302.095 471.314 326.975 533.975 334.091 546.299C341.206 558.623 381.444 651.443 406.633 659.494C431.822 667.546 448.703 643.421 451.482 623.331C454.261 603.24 401.658 483.668 373.348 443.528Z" fill="#F4CD62"/>
<path d="M349.975 821.407C331.01 790.266 143.846 601.258 53.2988 511.238C52.4372 510.869 49.9604 510.174 46.9468 510.351C43.1799 510.572 42.0717 513.157 43.7699 520.618C45.4681 528.078 69.3238 548.096 74.7152 554.079C80.1066 560.063 279.845 764.225 315 805C350.155 845.774 483.644 1080.67 509.491 1134.59C530.169 1177.73 546.315 1232.39 551.804 1254.33C558.476 1253.51 567.035 1239.07 547.894 1187.78C523.969 1123.66 373.682 860.334 349.975 821.407Z" fill="#A07E19"/>
<path d="M128.229 548.471C96.6183 525.128 77.3884 540.957 71.7248 551.79C69.4593 556.123 65.3713 568.039 67.1429 581.038C69.3574 597.288 112.71 648.921 123.345 658.376C133.981 667.831 201.41 743.25 227.852 742.956C254.295 742.663 262.718 714.449 259.026 694.506C255.335 674.563 167.743 577.649 128.229 548.471Z" fill="#F4CD62"/>
<path d="M1231.05 633.119C1217.55 636.619 1218.55 626.119 1217.05 624.619C1214.38 603.286 1209.25 557.119 1210.05 543.119C1211.05 525.619 1249.55 484.619 1264.55 478.619C1279.55 472.619 1291.55 497.119 1291.05 511.619C1290.55 526.119 1274.05 557.619 1273.55 574.119C1273.05 590.619 1244.55 629.619 1231.05 633.119Z" fill="#FF9EA0"/>
<path d="M837.422 675.354C851.239 678.537 850.215 668.988 851.75 667.624C854.479 648.222 859.733 606.236 858.914 593.504C857.891 577.588 818.488 540.301 803.137 534.844C787.785 529.387 775.504 551.669 776.015 564.856C776.527 578.043 793.414 606.691 793.926 621.697C794.437 636.703 823.606 672.171 837.422 675.354Z" fill="#FF9EA0"/>
<path d="M1401.96 874.691C1323.16 850.691 1228.13 837.024 1190.46 833.191C1099.8 815.691 908.064 801.691 900.464 843.691C890.964 896.191 772.464 877.191 703.464 901.191C634.464 925.191 558.964 1029.19 514.464 1100.69C469.964 1172.19 563.964 1297.69 642.964 1307.69C721.964 1317.69 928.464 1366.69 1041.96 1357.19C1132.76 1349.59 1430.33 1264.5 1563 1215C1566.67 1196.17 1562.26 1119.99 1553.46 1029.19C1542.46 915.691 1500.46 904.691 1401.96 874.691Z" fill="#1F005D"/>
<path d="M1176.33 772.949C1171.84 736.197 1161.98 734.333 1157.62 737.995L915.842 767.956C911.321 774.78 902.28 790.326 902.28 797.916C902.28 807.403 910.698 844.854 902.28 860.334C895.546 872.717 905.086 893.789 910.698 902.778C935.016 907.937 986.551 919.056 998.149 922.252C1012.65 926.247 1132.83 902.778 1176.33 860.334C1219.82 817.89 1181.94 818.888 1176.33 772.949Z" fill="#1A004D"/>
<path d="M858.964 709.191C812 633.5 807.833 592.167 805 548.5C805 536.667 800.464 493.695 818.464 422.896C840.964 334.396 932.464 259.396 1018.96 216.896C1105.46 174.396 1178.96 291.396 1190.96 317.396C1202.96 343.396 1223.96 409.691 1230.96 443.691C1237.96 477.691 1248.46 580.191 1209.46 675.191C1170.46 770.191 1065.46 827.191 1029.96 830.691C994.464 834.191 922.985 812.373 858.964 709.191Z" fill="#F4C7BB"/>
<path d="M814.964 213.691C843.364 179.691 863.167 163.833 868.5 152.5C878.667 144.5 907.464 110.091 949.464 97.6908C1001.96 82.1908 1116.96 137.691 1130.46 161.191C1143.96 184.691 1185.96 181.691 1200.96 195.191C1215.96 208.691 1248.46 237.191 1290.96 257.691C1333.46 278.191 1346.46 356.691 1346.46 399.191C1346.46 441.691 1293.46 497.691 1288.46 523.191C1283.46 548.691 1290.95 501.989 1264.96 518.691C1236.96 536.691 1234.96 567.691 1236.96 531.691C1238.96 495.691 1236.96 506.191 1218.46 439.691C1199.96 373.191 1216.96 406.191 1162.46 377.191C1107.96 348.191 1129.96 339.691 1107.96 303.691C1085.96 267.691 1037.96 280.191 976.964 322.691C915.964 365.191 930.964 402.691 908.964 475.691C886.964 548.691 875.464 565.191 795.464 582.191C715.464 599.191 758.964 547.191 712.964 486.191C666.964 425.191 716.464 402.691 728.464 322.691C740.464 242.691 779.464 256.191 814.964 213.691Z" fill="#140F22"/>
<circle cx="900" cy="527" r="18" fill="#140F22"/>
<circle cx="1127.96" cy="521.691" r="18" fill="#140F22"/>
<path d="M1090.96 436.573C1069.36 442.173 1057.96 451.74 1051.96 459.573C1065.3 456.573 1088.96 456.873 1100.96 452.073C1115.96 446.073 1171.46 442.573 1166.96 436.573C1162.46 430.573 1117.96 429.573 1090.96 436.573Z" fill="#140F22"/>
<path d="M928.867 449.831C947.685 452.488 958.296 459.596 964.169 465.752C952.601 464.505 932.645 467.147 922.017 464.213C908.732 460.546 861.502 463.114 864.685 457.483C867.868 451.852 905.346 446.509 928.867 449.831Z" fill="#140F22"/>
<path d="M993.752 624.691C988.552 611.091 995.919 589.691 1000.25 580.691C1005.42 589.524 1016.05 608.391 1017.25 613.191C1018.45 617.991 1014.09 625.524 1011.75 628.691C1007.92 633.024 998.952 638.291 993.752 624.691Z" fill="#FF9EA0"/>
<defs>
<linearGradient id="paint0_linear" x1="867.5" y1="600" x2="1200" y2="1283.5" gradientUnits="userSpaceOnUse">
<stop stop-color="#F2ECD2"/>
<stop offset="1" stop-color="#F4DD90"/>
</linearGradient>
</defs>
</svg>
